<mxfile host="app.diagrams.net" agent="Mozilla/5.0 (Windows NT 10.0; Win64; x64) AppleWebKit/537.36 (KHTML, like Gecko) Chrome/141.0.0.0 Safari/537.36" version="28.2.8">
  <diagram name="PÃ¡gina-1" id="DclBsARwsRiKQt5Ylqgx">
    <mxGraphModel dx="2040" dy="1967" grid="1" gridSize="10" guides="1" tooltips="1" connect="1" arrows="1" fold="1" page="1" pageScale="1" pageWidth="827" pageHeight="1169" math="0" shadow="0">
      <root>
        <mxCell id="0" />
        <mxCell id="1" parent="0" />
        <mxCell id="UJdqE-LtNaE90VZq5ioC-2" value="PROGRAMACION" style="rounded=0;whiteSpace=wrap;html=1;labelBackgroundColor=none;fillColor=#F08E81;strokeColor=#FFFFFF;fontColor=#1A1A1A;" parent="1" vertex="1">
          <mxGeometry x="10" y="760" width="160" height="80" as="geometry" />
        </mxCell>
        <mxCell id="UJdqE-LtNaE90VZq5ioC-20" style="edgeStyle=orthogonalEdgeStyle;rounded=0;orthogonalLoop=1;jettySize=auto;html=1;entryX=1;entryY=0.5;entryDx=0;entryDy=0;labelBackgroundColor=none;fontColor=default;strokeColor=#182E3E;" parent="1" source="UJdqE-LtNaE90VZq5ioC-3" target="UJdqE-LtNaE90VZq5ioC-16" edge="1">
          <mxGeometry relative="1" as="geometry" />
        </mxCell>
        <mxCell id="UJdqE-LtNaE90VZq5ioC-22" style="edgeStyle=orthogonalEdgeStyle;rounded=0;orthogonalLoop=1;jettySize=auto;html=1;entryX=0.5;entryY=1;entryDx=0;entryDy=0;labelBackgroundColor=none;fontColor=default;strokeColor=#182E3E;" parent="1" source="UJdqE-LtNaE90VZq5ioC-15" target="UJdqE-LtNaE90VZq5ioC-3" edge="1">
          <mxGeometry relative="1" as="geometry">
            <mxPoint x="340" y="550.0000000000002" as="targetPoint" />
          </mxGeometry>
        </mxCell>
        <mxCell id="UJdqE-LtNaE90VZq5ioC-3" value="EVENTO" style="rounded=0;whiteSpace=wrap;html=1;labelBackgroundColor=none;fillColor=#F08E81;strokeColor=#FFFFFF;fontColor=#1A1A1A;" parent="1" vertex="1">
          <mxGeometry x="310" y="330" width="150" height="90" as="geometry" />
        </mxCell>
        <mxCell id="UJdqE-LtNaE90VZq5ioC-4" value="ESPACIO EVENTO" style="rounded=0;whiteSpace=wrap;html=1;labelBackgroundColor=none;fillColor=#F08E81;strokeColor=#FFFFFF;fontColor=#1A1A1A;" parent="1" vertex="1">
          <mxGeometry x="810" y="360" width="150" height="80" as="geometry" />
        </mxCell>
        <mxCell id="UJdqE-LtNaE90VZq5ioC-54" style="edgeStyle=orthogonalEdgeStyle;rounded=0;orthogonalLoop=1;jettySize=auto;html=1;entryX=0.5;entryY=0;entryDx=0;entryDy=0;labelBackgroundColor=none;fontColor=default;strokeColor=#182E3E;" parent="1" source="UJdqE-LtNaE90VZq5ioC-5" target="UJdqE-LtNaE90VZq5ioC-53" edge="1">
          <mxGeometry relative="1" as="geometry">
            <mxPoint x="890" y="160" as="targetPoint" />
          </mxGeometry>
        </mxCell>
        <mxCell id="UJdqE-LtNaE90VZq5ioC-5" value="PROVEEDOR" style="rounded=0;whiteSpace=wrap;html=1;labelBackgroundColor=none;fillColor=#F08E81;strokeColor=#FFFFFF;fontColor=#1A1A1A;" parent="1" vertex="1">
          <mxGeometry x="680" width="170" height="100" as="geometry" />
        </mxCell>
        <mxCell id="UJdqE-LtNaE90VZq5ioC-57" style="edgeStyle=orthogonalEdgeStyle;rounded=0;orthogonalLoop=1;jettySize=auto;html=1;entryX=0.5;entryY=0;entryDx=0;entryDy=0;labelBackgroundColor=none;fontColor=default;strokeColor=#182E3E;" parent="1" source="UJdqE-LtNaE90VZq5ioC-6" target="UJdqE-LtNaE90VZq5ioC-56" edge="1">
          <mxGeometry relative="1" as="geometry" />
        </mxCell>
        <mxCell id="UJdqE-LtNaE90VZq5ioC-6" value="PARTICIPANTE" style="rounded=0;whiteSpace=wrap;html=1;labelBackgroundColor=none;fillColor=#F08E81;strokeColor=#FFFFFF;fontColor=#1A1A1A;" parent="1" vertex="1">
          <mxGeometry x="90" y="10" width="140" height="90" as="geometry" />
        </mxCell>
        <mxCell id="UJdqE-LtNaE90VZq5ioC-1" value="ENTRADA" style="rounded=0;whiteSpace=wrap;html=1;labelBackgroundColor=none;fillColor=#F08E81;strokeColor=#FFFFFF;fontColor=#1A1A1A;" parent="1" vertex="1">
          <mxGeometry x="-180" y="350" width="160" height="80" as="geometry" />
        </mxCell>
        <mxCell id="UJdqE-LtNaE90VZq5ioC-7" value="ORGANIZADOR" style="rounded=0;whiteSpace=wrap;html=1;labelBackgroundColor=none;fillColor=#F08E81;strokeColor=#FFFFFF;fontColor=#1A1A1A;" parent="1" vertex="1">
          <mxGeometry x="750" y="730" width="160" height="100" as="geometry" />
        </mxCell>
        <mxCell id="UJdqE-LtNaE90VZq5ioC-8" value="" style="endArrow=classic;html=1;rounded=0;labelBackgroundColor=none;fontColor=default;strokeColor=#182E3E;" parent="1" target="UJdqE-LtNaE90VZq5ioC-9" edge="1">
          <mxGeometry width="50" height="50" relative="1" as="geometry">
            <mxPoint x="340" y="360" as="sourcePoint" />
            <mxPoint x="310" y="280" as="targetPoint" />
          </mxGeometry>
        </mxCell>
        <mxCell id="UJdqE-LtNaE90VZq5ioC-9" value="Tiene" style="rhombus;whiteSpace=wrap;html=1;rounded=0;labelBackgroundColor=none;fillColor=#ffe6cc;strokeColor=#d79b00;" parent="1" vertex="1">
          <mxGeometry x="200" y="220" width="90" height="40" as="geometry" />
        </mxCell>
        <mxCell id="UJdqE-LtNaE90VZq5ioC-10" value="" style="endArrow=classic;html=1;rounded=0;entryX=0.5;entryY=1;entryDx=0;entryDy=0;exitX=0.5;exitY=0;exitDx=0;exitDy=0;labelBackgroundColor=none;fontColor=default;strokeColor=#182E3E;" parent="1" source="UJdqE-LtNaE90VZq5ioC-9" target="UJdqE-LtNaE90VZq5ioC-6" edge="1">
          <mxGeometry width="50" height="50" relative="1" as="geometry">
            <mxPoint x="300" y="260" as="sourcePoint" />
            <mxPoint x="320" y="200" as="targetPoint" />
          </mxGeometry>
        </mxCell>
        <mxCell id="UJdqE-LtNaE90VZq5ioC-12" style="edgeStyle=orthogonalEdgeStyle;rounded=0;orthogonalLoop=1;jettySize=auto;html=1;entryX=1;entryY=0;entryDx=0;entryDy=0;labelBackgroundColor=none;fontColor=default;strokeColor=#182E3E;" parent="1" source="UJdqE-LtNaE90VZq5ioC-11" target="UJdqE-LtNaE90VZq5ioC-3" edge="1">
          <mxGeometry relative="1" as="geometry" />
        </mxCell>
        <mxCell id="UJdqE-LtNaE90VZq5ioC-13" style="edgeStyle=orthogonalEdgeStyle;rounded=0;orthogonalLoop=1;jettySize=auto;html=1;entryX=0.5;entryY=1;entryDx=0;entryDy=0;labelBackgroundColor=none;fontColor=default;strokeColor=#182E3E;" parent="1" source="UJdqE-LtNaE90VZq5ioC-11" target="UJdqE-LtNaE90VZq5ioC-5" edge="1">
          <mxGeometry relative="1" as="geometry" />
        </mxCell>
        <mxCell id="UJdqE-LtNaE90VZq5ioC-11" value="Tiene" style="rhombus;whiteSpace=wrap;html=1;rounded=0;labelBackgroundColor=none;fillColor=#ffe6cc;strokeColor=#d79b00;" parent="1" vertex="1">
          <mxGeometry x="600" y="180" width="90" height="40" as="geometry" />
        </mxCell>
        <mxCell id="UJdqE-LtNaE90VZq5ioC-18" style="edgeStyle=orthogonalEdgeStyle;rounded=0;orthogonalLoop=1;jettySize=auto;html=1;labelBackgroundColor=none;fontColor=default;strokeColor=#182E3E;" parent="1" source="UJdqE-LtNaE90VZq5ioC-14" target="UJdqE-LtNaE90VZq5ioC-3" edge="1">
          <mxGeometry relative="1" as="geometry" />
        </mxCell>
        <mxCell id="UJdqE-LtNaE90VZq5ioC-19" style="edgeStyle=orthogonalEdgeStyle;rounded=0;orthogonalLoop=1;jettySize=auto;html=1;entryX=0;entryY=0.5;entryDx=0;entryDy=0;labelBackgroundColor=none;fontColor=default;strokeColor=#182E3E;" parent="1" source="UJdqE-LtNaE90VZq5ioC-14" target="UJdqE-LtNaE90VZq5ioC-4" edge="1">
          <mxGeometry relative="1" as="geometry" />
        </mxCell>
        <mxCell id="UJdqE-LtNaE90VZq5ioC-14" value="Tiene" style="rhombus;whiteSpace=wrap;html=1;rounded=0;labelBackgroundColor=none;fillColor=#ffe6cc;strokeColor=#d79b00;" parent="1" vertex="1">
          <mxGeometry x="600" y="370" width="90" height="40" as="geometry" />
        </mxCell>
        <mxCell id="UJdqE-LtNaE90VZq5ioC-21" style="edgeStyle=orthogonalEdgeStyle;rounded=0;orthogonalLoop=1;jettySize=auto;html=1;labelBackgroundColor=none;fontColor=default;strokeColor=#182E3E;" parent="1" source="UJdqE-LtNaE90VZq5ioC-16" target="UJdqE-LtNaE90VZq5ioC-1" edge="1">
          <mxGeometry relative="1" as="geometry" />
        </mxCell>
        <mxCell id="UJdqE-LtNaE90VZq5ioC-16" value="Tiene" style="rhombus;whiteSpace=wrap;html=1;rounded=0;labelBackgroundColor=none;fillColor=#ffe6cc;strokeColor=#d79b00;" parent="1" vertex="1">
          <mxGeometry x="100" y="370" width="90" height="40" as="geometry" />
        </mxCell>
        <mxCell id="UJdqE-LtNaE90VZq5ioC-27" style="edgeStyle=orthogonalEdgeStyle;rounded=0;orthogonalLoop=1;jettySize=auto;html=1;entryX=0.5;entryY=0;entryDx=0;entryDy=0;labelBackgroundColor=none;fontColor=default;strokeColor=#182E3E;" parent="1" source="UJdqE-LtNaE90VZq5ioC-17" target="UJdqE-LtNaE90VZq5ioC-7" edge="1">
          <mxGeometry relative="1" as="geometry" />
        </mxCell>
        <mxCell id="UJdqE-LtNaE90VZq5ioC-17" value="Tiene" style="rhombus;whiteSpace=wrap;html=1;rounded=0;labelBackgroundColor=none;fillColor=#ffe6cc;strokeColor=#d79b00;" parent="1" vertex="1">
          <mxGeometry x="640" y="560" width="90" height="40" as="geometry" />
        </mxCell>
        <mxCell id="UJdqE-LtNaE90VZq5ioC-24" style="edgeStyle=orthogonalEdgeStyle;rounded=0;orthogonalLoop=1;jettySize=auto;html=1;entryX=0.5;entryY=0;entryDx=0;entryDy=0;labelBackgroundColor=none;fontColor=default;strokeColor=#182E3E;" parent="1" source="UJdqE-LtNaE90VZq5ioC-15" target="UJdqE-LtNaE90VZq5ioC-2" edge="1">
          <mxGeometry relative="1" as="geometry" />
        </mxCell>
        <mxCell id="UJdqE-LtNaE90VZq5ioC-15" value="Tiene" style="rhombus;whiteSpace=wrap;html=1;rounded=0;labelBackgroundColor=none;fillColor=#ffe6cc;strokeColor=#d79b00;" parent="1" vertex="1">
          <mxGeometry x="190" y="630" width="90" height="40" as="geometry" />
        </mxCell>
        <mxCell id="UJdqE-LtNaE90VZq5ioC-26" value="" style="endArrow=classic;html=1;rounded=0;exitX=1;exitY=1;exitDx=0;exitDy=0;entryX=0;entryY=0;entryDx=0;entryDy=0;labelBackgroundColor=none;fontColor=default;strokeColor=#182E3E;" parent="1" source="UJdqE-LtNaE90VZq5ioC-3" target="UJdqE-LtNaE90VZq5ioC-17" edge="1">
          <mxGeometry width="50" height="50" relative="1" as="geometry">
            <mxPoint x="420" y="440" as="sourcePoint" />
            <mxPoint x="470" y="390" as="targetPoint" />
          </mxGeometry>
        </mxCell>
        <mxCell id="UJdqE-LtNaE90VZq5ioC-35" style="edgeStyle=orthogonalEdgeStyle;rounded=0;orthogonalLoop=1;jettySize=auto;html=1;entryX=0.25;entryY=1;entryDx=0;entryDy=0;labelBackgroundColor=none;fontColor=default;strokeColor=#182E3E;" parent="1" source="UJdqE-LtNaE90VZq5ioC-28" target="UJdqE-LtNaE90VZq5ioC-3" edge="1">
          <mxGeometry relative="1" as="geometry">
            <Array as="points">
              <mxPoint x="315" y="480" />
              <mxPoint x="348" y="480" />
            </Array>
          </mxGeometry>
        </mxCell>
        <mxCell id="UJdqE-LtNaE90VZq5ioC-28" value="ubicacion" style="ellipse;whiteSpace=wrap;html=1;rounded=0;labelBackgroundColor=none;fillColor=#dae8fc;strokeColor=#6c8ebf;" parent="1" vertex="1">
          <mxGeometry x="270" y="490" width="90" height="50" as="geometry" />
        </mxCell>
        <mxCell id="UJdqE-LtNaE90VZq5ioC-101" style="edgeStyle=orthogonalEdgeStyle;orthogonalLoop=1;jettySize=auto;html=1;entryX=0;entryY=0.75;entryDx=0;entryDy=0;strokeColor=#182E3E;fontFamily=Helvetica;fontSize=12;fontColor=default;labelBackgroundColor=none;" parent="1" source="UJdqE-LtNaE90VZq5ioC-29" target="UJdqE-LtNaE90VZq5ioC-3" edge="1">
          <mxGeometry relative="1" as="geometry" />
        </mxCell>
        <mxCell id="UJdqE-LtNaE90VZq5ioC-29" value="fecha" style="ellipse;whiteSpace=wrap;html=1;rounded=0;labelBackgroundColor=none;fillColor=#dae8fc;strokeColor=#6c8ebf;" parent="1" vertex="1">
          <mxGeometry x="170" y="440" width="90" height="50" as="geometry" />
        </mxCell>
        <mxCell id="UJdqE-LtNaE90VZq5ioC-36" style="edgeStyle=orthogonalEdgeStyle;rounded=0;orthogonalLoop=1;jettySize=auto;html=1;entryX=0.75;entryY=1;entryDx=0;entryDy=0;labelBackgroundColor=none;fontColor=default;strokeColor=#182E3E;" parent="1" source="UJdqE-LtNaE90VZq5ioC-31" target="UJdqE-LtNaE90VZq5ioC-3" edge="1">
          <mxGeometry relative="1" as="geometry" />
        </mxCell>
        <mxCell id="UJdqE-LtNaE90VZq5ioC-31" value="tipo_evento" style="ellipse;whiteSpace=wrap;html=1;rounded=0;labelBackgroundColor=none;fillColor=#dae8fc;strokeColor=#6c8ebf;" parent="1" vertex="1">
          <mxGeometry x="450" y="500" width="90" height="60" as="geometry" />
        </mxCell>
        <mxCell id="UJdqE-LtNaE90VZq5ioC-37" value="" style="edgeStyle=orthogonalEdgeStyle;rounded=0;orthogonalLoop=1;jettySize=auto;html=1;labelBackgroundColor=none;fontColor=default;strokeColor=#182E3E;" parent="1" source="UJdqE-LtNaE90VZq5ioC-32" target="UJdqE-LtNaE90VZq5ioC-3" edge="1">
          <mxGeometry relative="1" as="geometry" />
        </mxCell>
        <mxCell id="UJdqE-LtNaE90VZq5ioC-32" value="nombre" style="ellipse;whiteSpace=wrap;html=1;rounded=0;labelBackgroundColor=none;fillColor=#dae8fc;strokeColor=#6c8ebf;" parent="1" vertex="1">
          <mxGeometry x="390" y="200" width="60" height="40" as="geometry" />
        </mxCell>
        <mxCell id="UJdqE-LtNaE90VZq5ioC-38" style="edgeStyle=orthogonalEdgeStyle;rounded=0;orthogonalLoop=1;jettySize=auto;html=1;entryX=0.25;entryY=0;entryDx=0;entryDy=0;labelBackgroundColor=none;fontColor=default;strokeColor=#182E3E;" parent="1" source="UJdqE-LtNaE90VZq5ioC-33" target="UJdqE-LtNaE90VZq5ioC-3" edge="1">
          <mxGeometry relative="1" as="geometry" />
        </mxCell>
        <mxCell id="UJdqE-LtNaE90VZq5ioC-33" value="id_evento" style="ellipse;whiteSpace=wrap;html=1;rounded=0;labelBackgroundColor=none;fillColor=#dae8fc;strokeColor=#6c8ebf;" parent="1" vertex="1">
          <mxGeometry x="290" y="190" width="80" height="40" as="geometry" />
        </mxCell>
        <mxCell id="UJdqE-LtNaE90VZq5ioC-39" value="no_eventos_participado" style="ellipse;whiteSpace=wrap;html=1;rounded=0;labelBackgroundColor=none;fillColor=#dae8fc;strokeColor=#6c8ebf;" parent="1" vertex="1">
          <mxGeometry x="680" y="220" width="160" height="50" as="geometry" />
        </mxCell>
        <mxCell id="UJdqE-LtNaE90VZq5ioC-45" style="edgeStyle=orthogonalEdgeStyle;rounded=0;orthogonalLoop=1;jettySize=auto;html=1;entryX=0.5;entryY=0;entryDx=0;entryDy=0;labelBackgroundColor=none;fontColor=default;strokeColor=#182E3E;" parent="1" source="UJdqE-LtNaE90VZq5ioC-40" target="UJdqE-LtNaE90VZq5ioC-6" edge="1">
          <mxGeometry relative="1" as="geometry" />
        </mxCell>
        <mxCell id="UJdqE-LtNaE90VZq5ioC-40" value="id_participante&lt;span style=&quot;white-space: pre;&quot;&gt;&#x9;&lt;/span&gt;" style="ellipse;whiteSpace=wrap;html=1;rounded=0;labelBackgroundColor=none;fillColor=#dae8fc;strokeColor=#6c8ebf;" parent="1" vertex="1">
          <mxGeometry x="100" y="-160" width="100" height="50" as="geometry" />
        </mxCell>
        <mxCell id="UJdqE-LtNaE90VZq5ioC-41" value="telefono" style="ellipse;whiteSpace=wrap;html=1;rounded=0;labelBackgroundColor=none;fillColor=#dae8fc;strokeColor=#6c8ebf;" parent="1" vertex="1">
          <mxGeometry x="30" y="180" width="70" height="40" as="geometry" />
        </mxCell>
        <mxCell id="UJdqE-LtNaE90VZq5ioC-49" style="edgeStyle=orthogonalEdgeStyle;rounded=0;orthogonalLoop=1;jettySize=auto;html=1;entryX=0;entryY=0;entryDx=0;entryDy=0;labelBackgroundColor=none;fontColor=default;strokeColor=#182E3E;" parent="1" source="UJdqE-LtNaE90VZq5ioC-42" target="UJdqE-LtNaE90VZq5ioC-6" edge="1">
          <mxGeometry relative="1" as="geometry" />
        </mxCell>
        <mxCell id="UJdqE-LtNaE90VZq5ioC-42" value="tipo_participante" style="ellipse;whiteSpace=wrap;html=1;rounded=0;labelBackgroundColor=none;fillColor=#dae8fc;strokeColor=#6c8ebf;" parent="1" vertex="1">
          <mxGeometry x="-110" y="-80" width="130" height="50" as="geometry" />
        </mxCell>
        <mxCell id="UJdqE-LtNaE90VZq5ioC-46" style="edgeStyle=orthogonalEdgeStyle;rounded=0;orthogonalLoop=1;jettySize=auto;html=1;entryX=1;entryY=0;entryDx=0;entryDy=0;labelBackgroundColor=none;fontColor=default;strokeColor=#182E3E;" parent="1" source="UJdqE-LtNaE90VZq5ioC-43" target="UJdqE-LtNaE90VZq5ioC-6" edge="1">
          <mxGeometry relative="1" as="geometry" />
        </mxCell>
        <mxCell id="UJdqE-LtNaE90VZq5ioC-43" value="nombre" style="ellipse;whiteSpace=wrap;html=1;rounded=0;labelBackgroundColor=none;fillColor=#dae8fc;strokeColor=#6c8ebf;" parent="1" vertex="1">
          <mxGeometry x="290" y="-50" width="60" height="40" as="geometry" />
        </mxCell>
        <mxCell id="UJdqE-LtNaE90VZq5ioC-47" style="edgeStyle=orthogonalEdgeStyle;rounded=0;orthogonalLoop=1;jettySize=auto;html=1;labelBackgroundColor=none;fontColor=default;strokeColor=#182E3E;" parent="1" source="UJdqE-LtNaE90VZq5ioC-44" target="UJdqE-LtNaE90VZq5ioC-6" edge="1">
          <mxGeometry relative="1" as="geometry" />
        </mxCell>
        <mxCell id="UJdqE-LtNaE90VZq5ioC-44" value="correo" style="ellipse;whiteSpace=wrap;html=1;rounded=0;labelBackgroundColor=none;fillColor=#dae8fc;strokeColor=#6c8ebf;" parent="1" vertex="1">
          <mxGeometry x="300" y="70" width="60" height="40" as="geometry" />
        </mxCell>
        <mxCell id="UJdqE-LtNaE90VZq5ioC-51" value="capacidad" style="ellipse;whiteSpace=wrap;html=1;rounded=0;labelBackgroundColor=none;fillColor=#dae8fc;strokeColor=#6c8ebf;" parent="1" vertex="1">
          <mxGeometry x="810" y="510" width="105" height="60" as="geometry" />
        </mxCell>
        <mxCell id="UJdqE-LtNaE90VZq5ioC-65" style="edgeStyle=orthogonalEdgeStyle;rounded=0;orthogonalLoop=1;jettySize=auto;html=1;entryX=1;entryY=0.25;entryDx=0;entryDy=0;labelBackgroundColor=none;fontColor=default;strokeColor=#182E3E;" parent="1" source="UJdqE-LtNaE90VZq5ioC-52" target="UJdqE-LtNaE90VZq5ioC-5" edge="1">
          <mxGeometry relative="1" as="geometry" />
        </mxCell>
        <mxCell id="UJdqE-LtNaE90VZq5ioC-52" value="telefono" style="ellipse;whiteSpace=wrap;html=1;rounded=0;labelBackgroundColor=none;fillColor=#dae8fc;strokeColor=#6c8ebf;" parent="1" vertex="1">
          <mxGeometry x="880" y="-100" width="100" height="50" as="geometry" />
        </mxCell>
        <mxCell id="UJdqE-LtNaE90VZq5ioC-55" style="edgeStyle=orthogonalEdgeStyle;rounded=0;orthogonalLoop=1;jettySize=auto;html=1;labelBackgroundColor=none;fontColor=default;strokeColor=#182E3E;" parent="1" source="UJdqE-LtNaE90VZq5ioC-53" target="UJdqE-LtNaE90VZq5ioC-4" edge="1">
          <mxGeometry relative="1" as="geometry" />
        </mxCell>
        <mxCell id="UJdqE-LtNaE90VZq5ioC-53" value="Tiene" style="rhombus;whiteSpace=wrap;html=1;rounded=0;labelBackgroundColor=none;fillColor=#ffe6cc;strokeColor=#d79b00;" parent="1" vertex="1">
          <mxGeometry x="850" y="180" width="90" height="40" as="geometry" />
        </mxCell>
        <mxCell id="UJdqE-LtNaE90VZq5ioC-59" style="edgeStyle=orthogonalEdgeStyle;rounded=0;orthogonalLoop=1;jettySize=auto;html=1;entryX=0.5;entryY=0;entryDx=0;entryDy=0;labelBackgroundColor=none;fontColor=default;strokeColor=#182E3E;" parent="1" source="UJdqE-LtNaE90VZq5ioC-56" target="UJdqE-LtNaE90VZq5ioC-1" edge="1">
          <mxGeometry relative="1" as="geometry" />
        </mxCell>
        <mxCell id="UJdqE-LtNaE90VZq5ioC-56" value="Tiene" style="rhombus;whiteSpace=wrap;html=1;rounded=0;labelBackgroundColor=none;fillColor=#ffe6cc;strokeColor=#d79b00;" parent="1" vertex="1">
          <mxGeometry x="-140" y="160" width="90" height="40" as="geometry" />
        </mxCell>
        <mxCell id="UJdqE-LtNaE90VZq5ioC-58" style="edgeStyle=orthogonalEdgeStyle;rounded=0;orthogonalLoop=1;jettySize=auto;html=1;entryX=0.095;entryY=1.009;entryDx=0;entryDy=0;entryPerimeter=0;labelBackgroundColor=none;fontColor=default;strokeColor=#182E3E;" parent="1" source="UJdqE-LtNaE90VZq5ioC-41" target="UJdqE-LtNaE90VZq5ioC-6" edge="1">
          <mxGeometry relative="1" as="geometry" />
        </mxCell>
        <mxCell id="UJdqE-LtNaE90VZq5ioC-60" value="nombre" style="ellipse;whiteSpace=wrap;html=1;rounded=0;labelBackgroundColor=none;fillColor=#dae8fc;strokeColor=#6c8ebf;" parent="1" vertex="1">
          <mxGeometry x="500" y="-90" width="80" height="40" as="geometry" />
        </mxCell>
        <mxCell id="UJdqE-LtNaE90VZq5ioC-68" style="edgeStyle=orthogonalEdgeStyle;rounded=0;orthogonalLoop=1;jettySize=auto;html=1;entryX=0;entryY=0.75;entryDx=0;entryDy=0;labelBackgroundColor=none;fontColor=default;strokeColor=#182E3E;" parent="1" source="UJdqE-LtNaE90VZq5ioC-61" target="UJdqE-LtNaE90VZq5ioC-5" edge="1">
          <mxGeometry relative="1" as="geometry" />
        </mxCell>
        <mxCell id="UJdqE-LtNaE90VZq5ioC-61" value="servicio" style="ellipse;whiteSpace=wrap;html=1;rounded=0;labelBackgroundColor=none;fillColor=#dae8fc;strokeColor=#6c8ebf;" parent="1" vertex="1">
          <mxGeometry x="460" y="10" width="60" height="40" as="geometry" />
        </mxCell>
        <mxCell id="UJdqE-LtNaE90VZq5ioC-64" style="edgeStyle=orthogonalEdgeStyle;rounded=0;orthogonalLoop=1;jettySize=auto;html=1;entryX=0.5;entryY=0;entryDx=0;entryDy=0;labelBackgroundColor=none;fontColor=default;strokeColor=#182E3E;" parent="1" source="UJdqE-LtNaE90VZq5ioC-62" target="UJdqE-LtNaE90VZq5ioC-5" edge="1">
          <mxGeometry relative="1" as="geometry" />
        </mxCell>
        <mxCell id="UJdqE-LtNaE90VZq5ioC-62" value="id_proveedor" style="ellipse;whiteSpace=wrap;html=1;rounded=0;labelBackgroundColor=none;fillColor=#dae8fc;strokeColor=#6c8ebf;" parent="1" vertex="1">
          <mxGeometry x="705" y="-120" width="110" height="50" as="geometry" />
        </mxCell>
        <mxCell id="UJdqE-LtNaE90VZq5ioC-67" style="edgeStyle=orthogonalEdgeStyle;rounded=0;orthogonalLoop=1;jettySize=auto;html=1;entryX=0.146;entryY=0.04;entryDx=0;entryDy=0;entryPerimeter=0;labelBackgroundColor=none;fontColor=default;strokeColor=#182E3E;" parent="1" source="UJdqE-LtNaE90VZq5ioC-60" target="UJdqE-LtNaE90VZq5ioC-5" edge="1">
          <mxGeometry relative="1" as="geometry" />
        </mxCell>
        <mxCell id="UJdqE-LtNaE90VZq5ioC-69" style="edgeStyle=orthogonalEdgeStyle;rounded=0;orthogonalLoop=1;jettySize=auto;html=1;entryX=0.861;entryY=1.056;entryDx=0;entryDy=0;entryPerimeter=0;labelBackgroundColor=none;fontColor=default;strokeColor=#182E3E;" parent="1" source="UJdqE-LtNaE90VZq5ioC-39" target="UJdqE-LtNaE90VZq5ioC-5" edge="1">
          <mxGeometry relative="1" as="geometry" />
        </mxCell>
        <mxCell id="UJdqE-LtNaE90VZq5ioC-70" style="edgeStyle=orthogonalEdgeStyle;rounded=0;orthogonalLoop=1;jettySize=auto;html=1;exitX=0.5;exitY=1;exitDx=0;exitDy=0;labelBackgroundColor=none;fontColor=default;strokeColor=#182E3E;" parent="1" source="UJdqE-LtNaE90VZq5ioC-17" target="UJdqE-LtNaE90VZq5ioC-17" edge="1">
          <mxGeometry relative="1" as="geometry" />
        </mxCell>
        <mxCell id="UJdqE-LtNaE90VZq5ioC-72" value="nombre_sala" style="ellipse;whiteSpace=wrap;html=1;rounded=0;labelBackgroundColor=none;fillColor=#dae8fc;strokeColor=#6c8ebf;" parent="1" vertex="1">
          <mxGeometry x="1060" y="300" width="100" height="70" as="geometry" />
        </mxCell>
        <mxCell id="UJdqE-LtNaE90VZq5ioC-73" value="contacto" style="ellipse;whiteSpace=wrap;html=1;rounded=0;labelBackgroundColor=none;fillColor=#dae8fc;strokeColor=#6c8ebf;" parent="1" vertex="1">
          <mxGeometry x="980" y="780" width="100" height="50" as="geometry" />
        </mxCell>
        <mxCell id="UJdqE-LtNaE90VZq5ioC-74" value="id_espacio" style="ellipse;whiteSpace=wrap;html=1;rounded=0;labelBackgroundColor=none;fillColor=#dae8fc;strokeColor=#6c8ebf;" parent="1" vertex="1">
          <mxGeometry x="1080" y="470" width="80" height="60" as="geometry" />
        </mxCell>
        <mxCell id="UJdqE-LtNaE90VZq5ioC-75" style="edgeStyle=orthogonalEdgeStyle;rounded=0;orthogonalLoop=1;jettySize=auto;html=1;entryX=1.027;entryY=0.363;entryDx=0;entryDy=0;entryPerimeter=0;labelBackgroundColor=none;fontColor=default;strokeColor=#182E3E;" parent="1" source="UJdqE-LtNaE90VZq5ioC-72" target="UJdqE-LtNaE90VZq5ioC-4" edge="1">
          <mxGeometry relative="1" as="geometry" />
        </mxCell>
        <mxCell id="UJdqE-LtNaE90VZq5ioC-77" style="edgeStyle=orthogonalEdgeStyle;rounded=0;orthogonalLoop=1;jettySize=auto;html=1;entryX=0.603;entryY=1.05;entryDx=0;entryDy=0;entryPerimeter=0;labelBackgroundColor=none;fontColor=default;strokeColor=#182E3E;" parent="1" source="UJdqE-LtNaE90VZq5ioC-51" target="UJdqE-LtNaE90VZq5ioC-4" edge="1">
          <mxGeometry relative="1" as="geometry" />
        </mxCell>
        <mxCell id="UJdqE-LtNaE90VZq5ioC-78" style="edgeStyle=orthogonalEdgeStyle;rounded=0;orthogonalLoop=1;jettySize=auto;html=1;entryX=0.813;entryY=1.05;entryDx=0;entryDy=0;entryPerimeter=0;labelBackgroundColor=none;fontColor=default;strokeColor=#182E3E;" parent="1" source="UJdqE-LtNaE90VZq5ioC-74" target="UJdqE-LtNaE90VZq5ioC-4" edge="1">
          <mxGeometry relative="1" as="geometry" />
        </mxCell>
        <mxCell id="UJdqE-LtNaE90VZq5ioC-79" value="id_organizador" style="ellipse;whiteSpace=wrap;html=1;rounded=0;labelBackgroundColor=none;fillColor=#dae8fc;strokeColor=#6c8ebf;" parent="1" vertex="1">
          <mxGeometry x="790" y="910" width="110" height="60" as="geometry" />
        </mxCell>
        <mxCell id="UJdqE-LtNaE90VZq5ioC-80" value="cargo" style="ellipse;whiteSpace=wrap;html=1;rounded=0;labelBackgroundColor=none;fillColor=#dae8fc;strokeColor=#6c8ebf;" parent="1" vertex="1">
          <mxGeometry x="990" y="630" width="90" height="60" as="geometry" />
        </mxCell>
        <mxCell id="UJdqE-LtNaE90VZq5ioC-83" style="edgeStyle=orthogonalEdgeStyle;rounded=0;orthogonalLoop=1;jettySize=auto;html=1;entryX=0;entryY=0.25;entryDx=0;entryDy=0;labelBackgroundColor=none;fontColor=default;strokeColor=#182E3E;" parent="1" source="UJdqE-LtNaE90VZq5ioC-81" target="UJdqE-LtNaE90VZq5ioC-7" edge="1">
          <mxGeometry relative="1" as="geometry" />
        </mxCell>
        <mxCell id="UJdqE-LtNaE90VZq5ioC-81" value="nombre" style="ellipse;whiteSpace=wrap;html=1;rounded=0;labelBackgroundColor=none;fillColor=#dae8fc;strokeColor=#6c8ebf;" parent="1" vertex="1">
          <mxGeometry x="600" y="760" width="75" height="50" as="geometry" />
        </mxCell>
        <mxCell id="UJdqE-LtNaE90VZq5ioC-91" style="edgeStyle=orthogonalEdgeStyle;rounded=0;orthogonalLoop=1;jettySize=auto;html=1;entryX=1;entryY=0.75;entryDx=0;entryDy=0;labelBackgroundColor=none;fontColor=default;strokeColor=#182E3E;" parent="1" source="UJdqE-LtNaE90VZq5ioC-82" target="UJdqE-LtNaE90VZq5ioC-2" edge="1">
          <mxGeometry relative="1" as="geometry" />
        </mxCell>
        <mxCell id="UJdqE-LtNaE90VZq5ioC-82" value="hora_fin" style="ellipse;whiteSpace=wrap;html=1;rounded=0;labelBackgroundColor=none;fillColor=#dae8fc;strokeColor=#6c8ebf;" parent="1" vertex="1">
          <mxGeometry x="290" y="750" width="70" height="50" as="geometry" />
        </mxCell>
        <mxCell id="UJdqE-LtNaE90VZq5ioC-84" style="edgeStyle=orthogonalEdgeStyle;rounded=0;orthogonalLoop=1;jettySize=auto;html=1;entryX=0.375;entryY=1;entryDx=0;entryDy=0;entryPerimeter=0;labelBackgroundColor=none;fontColor=default;strokeColor=#182E3E;" parent="1" source="UJdqE-LtNaE90VZq5ioC-79" target="UJdqE-LtNaE90VZq5ioC-7" edge="1">
          <mxGeometry relative="1" as="geometry" />
        </mxCell>
        <mxCell id="UJdqE-LtNaE90VZq5ioC-85" style="edgeStyle=orthogonalEdgeStyle;rounded=0;orthogonalLoop=1;jettySize=auto;html=1;entryX=0.975;entryY=0.418;entryDx=0;entryDy=0;entryPerimeter=0;labelBackgroundColor=none;fontColor=default;strokeColor=#182E3E;" parent="1" source="UJdqE-LtNaE90VZq5ioC-73" target="UJdqE-LtNaE90VZq5ioC-7" edge="1">
          <mxGeometry relative="1" as="geometry" />
        </mxCell>
        <mxCell id="UJdqE-LtNaE90VZq5ioC-86" style="edgeStyle=orthogonalEdgeStyle;rounded=0;orthogonalLoop=1;jettySize=auto;html=1;entryX=0.901;entryY=-0.021;entryDx=0;entryDy=0;entryPerimeter=0;labelBackgroundColor=none;fontColor=default;strokeColor=#182E3E;" parent="1" source="UJdqE-LtNaE90VZq5ioC-80" target="UJdqE-LtNaE90VZq5ioC-7" edge="1">
          <mxGeometry relative="1" as="geometry" />
        </mxCell>
        <mxCell id="UJdqE-LtNaE90VZq5ioC-92" style="edgeStyle=orthogonalEdgeStyle;rounded=0;orthogonalLoop=1;jettySize=auto;html=1;entryX=0.75;entryY=1;entryDx=0;entryDy=0;labelBackgroundColor=none;fontColor=default;strokeColor=#182E3E;" parent="1" source="UJdqE-LtNaE90VZq5ioC-87" target="UJdqE-LtNaE90VZq5ioC-2" edge="1">
          <mxGeometry relative="1" as="geometry" />
        </mxCell>
        <mxCell id="UJdqE-LtNaE90VZq5ioC-87" value="hora_inicio" style="ellipse;whiteSpace=wrap;html=1;rounded=0;labelBackgroundColor=none;fillColor=#dae8fc;strokeColor=#6c8ebf;" parent="1" vertex="1">
          <mxGeometry x="250" y="920" width="90" height="60" as="geometry" />
        </mxCell>
        <mxCell id="UJdqE-LtNaE90VZq5ioC-88" value="id_programacion" style="ellipse;whiteSpace=wrap;html=1;rounded=0;labelBackgroundColor=none;fillColor=#dae8fc;strokeColor=#6c8ebf;" parent="1" vertex="1">
          <mxGeometry x="-160" y="940" width="130" height="60" as="geometry" />
        </mxCell>
        <mxCell id="UJdqE-LtNaE90VZq5ioC-89" value="actividad" style="ellipse;whiteSpace=wrap;html=1;rounded=0;labelBackgroundColor=none;fillColor=#dae8fc;strokeColor=#6c8ebf;" parent="1" vertex="1">
          <mxGeometry x="-240" y="740" width="110" height="50" as="geometry" />
        </mxCell>
        <mxCell id="UJdqE-LtNaE90VZq5ioC-100" style="edgeStyle=orthogonalEdgeStyle;rounded=0;orthogonalLoop=1;jettySize=auto;html=1;entryX=0.75;entryY=1;entryDx=0;entryDy=0;labelBackgroundColor=none;fontColor=default;strokeColor=#182E3E;" parent="1" source="UJdqE-LtNaE90VZq5ioC-90" target="UJdqE-LtNaE90VZq5ioC-1" edge="1">
          <mxGeometry relative="1" as="geometry" />
        </mxCell>
        <mxCell id="UJdqE-LtNaE90VZq5ioC-90" value="precio" style="ellipse;whiteSpace=wrap;html=1;rounded=0;labelBackgroundColor=none;fillColor=#dae8fc;strokeColor=#6c8ebf;" parent="1" vertex="1">
          <mxGeometry x="10" y="480" width="90" height="50" as="geometry" />
        </mxCell>
        <mxCell id="UJdqE-LtNaE90VZq5ioC-93" style="edgeStyle=orthogonalEdgeStyle;rounded=0;orthogonalLoop=1;jettySize=auto;html=1;entryX=0.198;entryY=1.04;entryDx=0;entryDy=0;entryPerimeter=0;labelBackgroundColor=none;fontColor=default;strokeColor=#182E3E;" parent="1" source="UJdqE-LtNaE90VZq5ioC-88" target="UJdqE-LtNaE90VZq5ioC-2" edge="1">
          <mxGeometry relative="1" as="geometry" />
        </mxCell>
        <mxCell id="UJdqE-LtNaE90VZq5ioC-95" style="edgeStyle=orthogonalEdgeStyle;rounded=0;orthogonalLoop=1;jettySize=auto;html=1;entryX=0.026;entryY=0.609;entryDx=0;entryDy=0;entryPerimeter=0;labelBackgroundColor=none;fontColor=default;strokeColor=#182E3E;" parent="1" source="UJdqE-LtNaE90VZq5ioC-89" target="UJdqE-LtNaE90VZq5ioC-2" edge="1">
          <mxGeometry relative="1" as="geometry" />
        </mxCell>
        <mxCell id="UJdqE-LtNaE90VZq5ioC-96" value="id_entrada" style="ellipse;whiteSpace=wrap;html=1;rounded=0;labelBackgroundColor=none;fillColor=#dae8fc;strokeColor=#6c8ebf;" parent="1" vertex="1">
          <mxGeometry x="-410" y="360" width="110" height="50" as="geometry" />
        </mxCell>
        <mxCell id="UJdqE-LtNaE90VZq5ioC-99" style="edgeStyle=orthogonalEdgeStyle;rounded=0;orthogonalLoop=1;jettySize=auto;html=1;entryX=0.25;entryY=1;entryDx=0;entryDy=0;labelBackgroundColor=none;fontColor=default;strokeColor=#182E3E;" parent="1" source="UJdqE-LtNaE90VZq5ioC-97" target="UJdqE-LtNaE90VZq5ioC-1" edge="1">
          <mxGeometry relative="1" as="geometry" />
        </mxCell>
        <mxCell id="UJdqE-LtNaE90VZq5ioC-97" value="tipo" style="ellipse;whiteSpace=wrap;html=1;rounded=0;labelBackgroundColor=none;fillColor=#dae8fc;strokeColor=#6c8ebf;" parent="1" vertex="1">
          <mxGeometry x="-310" y="500" width="110" height="60" as="geometry" />
        </mxCell>
        <mxCell id="UJdqE-LtNaE90VZq5ioC-98" style="edgeStyle=orthogonalEdgeStyle;rounded=0;orthogonalLoop=1;jettySize=auto;html=1;entryX=-0.012;entryY=0.596;entryDx=0;entryDy=0;entryPerimeter=0;labelBackgroundColor=none;fontColor=default;strokeColor=#182E3E;" parent="1" source="UJdqE-LtNaE90VZq5ioC-96" target="UJdqE-LtNaE90VZq5ioC-1" edge="1">
          <mxGeometry relative="1" as="geometry" />
        </mxCell>
      </root>
    </mxGraphModel>
  </diagram>
</mxfile>
